HIERARCHY
ROOT hip
{
  OFFSET 0 0 0
  CHANNELS 6 Xposition Yposition Zposition Zrotation Yrotation Xrotation
  JOINT abdomen
  {
    OFFSET 0 20.6881 -0.73152
    CHANNELS 3 Zrotation Xrotation Yrotation
    JOINT chest
    {
      OFFSET 0 11.7043 -0.48768
      CHANNELS 3 Zrotation Xrotation Yrotation
      JOINT neck
      {
        OFFSET 0 22.1894 -2.19456
        CHANNELS 3 Zrotation Xrotation Yrotation
        JOINT head
        {
          OFFSET -0.24384 7.07133 1.2192
          CHANNELS 3 Zrotation Xrotation Yrotation
          JOINT leftEye
          {
            OFFSET 4.14528 8.04674 8.04672
            CHANNELS 3 Zrotation Xrotation Yrotation
            End Site
            {
              OFFSET 1 0 0
            }
          }
          JOINT rightEye
          {
            OFFSET -3.6576 8.04674 8.04672
            CHANNELS 3 Zrotation Xrotation Yrotation
            End Site
            {
              OFFSET 1 0 0
            }
          }
        }
      }
      JOINT rCollar
      {
        OFFSET -2.68224 19.2634 -4.8768
        CHANNELS 3 Zrotation Xrotation Yrotation
        JOINT rShldr
        {
          OFFSET -8.77824 -1.95073 1.46304
          CHANNELS 3 Zrotation Xrotation Yrotation
          JOINT rForeArm
          {
            OFFSET -28.1742 -1.7115 0.48768
            CHANNELS 3 Zrotation Xrotation Yrotation
            JOINT rHand
            {
              OFFSET -22.5879 0.773209 7.07136
              CHANNELS 3 Zrotation Xrotation Yrotation
              JOINT rThumb1
              {
                OFFSET -1.2192 -0.487915 3.41376
                CHANNELS 3 Zrotation Xrotation Yrotation
                JOINT rThumb2
                {
                  OFFSET -3.37035 -0.52449 3.41376
                  CHANNELS 3 Zrotation Xrotation Yrotation
                  End Site
                  {
                    OFFSET -1.78271 -1.18214 1.43049
                  }
                }
              }
              JOINT rIndex1
              {
                OFFSET -7.75947 0.938293 5.60832
                CHANNELS 3 Zrotation Xrotation Yrotation
                JOINT rIndex2
                {
                  OFFSET -2.54057 -0.884171 1.56538
                  CHANNELS 3 Zrotation Xrotation Yrotation
                  End Site
                  {
                    OFFSET -1.62519 -0.234802 1.16502
                  }
                }
              }
              JOINT rMid1
              {
                OFFSET -8.24714 1.18213 3.41376
                CHANNELS 3 Zrotation Xrotation Yrotation
                JOINT rMid2
                {
                  OFFSET -3.10165 -0.590103 1.0647
                  CHANNELS 3 Zrotation Xrotation Yrotation
                  End Site
                  {
                    OFFSET -2.48547 -0.328903 0.83742
                  }
                }
              }
              JOINT rRing1
              {
                OFFSET -8.82822 0.546677 1.51678
                CHANNELS 3 Zrotation Xrotation Yrotation
                JOINT rRing2
                {
                  OFFSET -2.60934 -0.819778 -0.0198488
                  CHANNELS 3 Zrotation Xrotation Yrotation
                  End Site
                  {
                    OFFSET -2.33842 -0.294052 0.168128
                  }
                }
              }
              JOINT rPinky1
              {
                OFFSET -8.27202 -0.0477905 -0.4584
                CHANNELS 3 Zrotation Xrotation Yrotation
                JOINT rPinky2
                {
                  OFFSET -1.82734 -0.647385 -0.700984
                  CHANNELS 3 Zrotation Xrotation Yrotation
                  End Site
                  {
                    OFFSET -1.69225 -0.51767 -0.607171
                  }
                }
              }
            }
          }
        }
      }
      JOINT lCollar
      {
        OFFSET 2.68224 19.2634 -4.8768
        CHANNELS 3 Zrotation Xrotation Yrotation
        JOINT lShldr
        {
          OFFSET 8.77824 -1.95073 1.46304
          CHANNELS 3 Zrotation Xrotation Yrotation
          JOINT lForeArm
          {
            OFFSET 28.1742 -1.7115 0.48768
            CHANNELS 3 Zrotation Xrotation Yrotation
            JOINT lHand
            {
              OFFSET 22.5879 0.773209 7.07136
              CHANNELS 3 Zrotation Xrotation Yrotation
              JOINT lThumb1
              {
                OFFSET 1.2192 -0.487915 3.41376
                CHANNELS 3 Zrotation Xrotation Yrotation
                JOINT lThumb2
                {
                  OFFSET 3.37035 -0.52449 3.41376
                  CHANNELS 3 Zrotation Xrotation Yrotation
                  End Site
                  {
                    OFFSET 1.78271 -1.18214 1.43049
                  }
                }
              }
              JOINT lIndex1
              {
                OFFSET 7.75947 0.938293 5.60832
                CHANNELS 3 Zrotation Xrotation Yrotation
                JOINT lIndex2
                {
                  OFFSET 2.54057 -0.884171 1.56538
                  CHANNELS 3 Zrotation Xrotation Yrotation
                  End Site
                  {
                    OFFSET 1.62519 -0.234802 1.16502
                  }
                }
              }
              JOINT lMid1
              {
                OFFSET 8.24714 1.18213 3.41376
                CHANNELS 3 Zrotation Xrotation Yrotation
                JOINT lMid2
                {
                  OFFSET 3.10165 -0.590103 1.0647
                  CHANNELS 3 Zrotation Xrotation Yrotation
                  End Site
                  {
                    OFFSET 2.48547 -0.328903 0.83742
                  }
                }
              }
              JOINT lRing1
              {
                OFFSET 8.82822 0.546677 1.51678
                CHANNELS 3 Zrotation Xrotation Yrotation
                JOINT lRing2
                {
                  OFFSET 2.60934 -0.819778 -0.0198488
                  CHANNELS 3 Zrotation Xrotation Yrotation
                  End Site
                  {
                    OFFSET 2.33842 -0.294052 0.168128
                  }
                }
              }
              JOINT lPinky1
              {
                OFFSET 8.27202 -0.0477905 -0.4584
                CHANNELS 3 Zrotation Xrotation Yrotation
                JOINT lPinky2
                {
                  OFFSET 1.82734 -0.647385 -0.700984
                  CHANNELS 3 Zrotation Xrotation Yrotation
                  End Site
                  {
                    OFFSET 1.69225 -0.51767 -0.607171
                  }
                }
              }
            }
          }
        }
      }
    }
  }
  JOINT rButtock
  {
    OFFSET -8.77824 4.35084 1.2192
    CHANNELS 3 Zrotation Xrotation Yrotation
    JOINT rThigh
    {
      OFFSET 0 -1.70687 -2.19456
      CHANNELS 3 Zrotation Xrotation Yrotation
      JOINT rShin
      {
        OFFSET 0 -36.8199 0.73152
        CHANNELS 3 Zrotation Xrotation Yrotation
        JOINT rFoot
        {
          OFFSET 0.73152 -45.1104 -5.12064
          CHANNELS 3 Zrotation Xrotation Yrotation
          End Site
          {
            OFFSET -1.1221 -3.69964 12.103
          }
        }
      }
    }
  }
  JOINT lButtock
  {
    OFFSET 8.77824 4.35084 1.2192
    CHANNELS 3 Zrotation Xrotation Yrotation
    JOINT lThigh
    {
      OFFSET 0 -1.70687 -2.19456
      CHANNELS 3 Zrotation Xrotation Yrotation
      JOINT lShin
      {
        OFFSET 0 -36.8199 0.73152
        CHANNELS 3 Zrotation Xrotation Yrotation
        JOINT lFoot
        {
          OFFSET -0.73152 -45.1104 -5.12064
          CHANNELS 3 Zrotation Xrotation Yrotation
          End Site
          {
            OFFSET 1.1221 -3.69964 12.103
          }
        }
      }
    }
  }
}
MOTION
Frames:	7
Frame Time:	0.00833333
-3.35464 84.3484 9.03177 -144.458 -53.7894 178.878 10.2085 -0.785614 18.0481 -3.40529 -21.747 4.2049 4.30428 -6.1834 -0.257603 6.24452 11.6493 -3.93375 -0.0 0.0 0.0 -0.0 0.0 0.0 -3.34167e-13 3.60122e-12 7.83825e-13 55.5571 37.0924 -5.20011 -25.1501 -21.4243 53.4438 -0.0868114 -8.37677 -1.18582 5.72838e-09 1.18787e-08 -1.10103e-08 9.97811e-09 2.05727e-08 -1.89866e-08 5.72839e-09 1.18787e-08 -1.10104e-08 7.73091 5.47488 0.417314 5.72838e-09 1.18786e-08 -1.10103e-08 2.90554 0.965183 0.102902 5.72839e-09 1.18786e-08 -1.10103e-08 10.2786 0.731801 0.0259123 5.72837e-09 1.18786e-08 -1.10103e-08 2.22167 -0.733487 -0.20892 -3.34355e-13 3.60125e-12 7.83661e-13 -61.4087 6.53921 32.3639 15.7015 -8.41104 -29.0487 0.0158974 3.52227 -0.495706 -1.60166e-09 6.47083e-09 -1.51098e-09 -2.79e-09 1.12199e-08 -2.6029e-09 -1.60167e-09 6.47084e-09 -1.51096e-09 -7.73091 5.47488 -0.417314 -1.60166e-09 6.47083e-09 -1.51098e-09 -2.90554 0.965183 -0.102902 -1.60166e-09 6.47084e-09 -1.51097e-09 -10.2786 0.731801 -0.0259123 -1.60166e-09 6.47083e-09 -1.51099e-09 -2.22167 -0.733487 0.20892 -2.03217e-16 0.0 -3.88251e-19 22.2522 -3.97597 20.6356 0.231038 17.4464 1.88102 -14.2517 -40.6099 -24.0052 2.03217e-16 0.0 3.88251e-19 33.8906 -49.7904 2.34878 -0.0616487 20.3788 -2.66847 2.39904 -35.1386 -2.0542
-5.06885 84.8469 9.18421 -143.166 -54.0631 178.59 10.5168 -0.92812 17.8933 -2.71099 -21.5475 4.30809 4.13724 -6.22952 -0.36173 6.02168 11.0545 -3.95621 -0.0 0.0 0.0 -0.0 0.0 0.0 -3.41724e-14 1.56505e-12 7.39746e-13 54.9508 37.4437 -5.36519 -24.8769 -20.8363 52.4707 -0.0912526 -8.58559 -1.21583 2.80688e-09 7.55102e-09 -7.9542e-09 4.90654e-09 1.30853e-08 -1.37208e-08 2.80689e-09 7.55102e-09 -7.95422e-09 7.73091 5.47488 0.417314 2.80688e-09 7.55101e-09 -7.95421e-09 2.90554 0.965183 0.102902 2.80689e-09 7.55101e-09 -7.9542e-09 10.2786 0.731801 0.0259123 2.80688e-09 7.55101e-09 -7.95419e-09 2.22167 -0.733487 -0.20892 -3.43175e-14 1.56506e-12 7.39634e-13 -62.8682 6.91574 32.0574 15.7678 -8.4716 -29.1876 0.0151893 3.40969 -0.479845 -2.73376e-09 8.46778e-09 3.67858e-10 -4.73515e-09 1.46794e-08 6.55601e-10 -2.73376e-09 8.46778e-09 3.67872e-10 -7.73091 5.47488 -0.417314 -2.73376e-09 8.46777e-09 3.67857e-10 -2.90554 0.965183 -0.102902 -2.73376e-09 8.46778e-09 3.67863e-10 -10.2786 0.731801 -0.0259123 -2.73376e-09 8.46777e-09 3.67847e-10 -2.22167 -0.733487 0.20892 -2.03217e-16 0.0 -3.88251e-19 20.5562 -5.11584 16.5844 0.272546 18.5173 2.13343 -11.0864 -32.7902 -22.0648 2.03217e-16 0.0 3.88251e-19 32.9143 -49.2465 0.434024 -0.0668641 19.2209 -2.82396 5.47277 -35.5355 2.78181
-7.02449 85.393 9.46071 -142.355 -54.5171 178.307 10.8406 -0.951093 17.5822 -2.03734 -21.2685 4.37777 4.02074 -6.08901 -0.394035 5.73277 10.6322 -3.87362 -0.0 0.0 0.0 -0.0 0.0 0.0 2.66264e-13 -6.91741e-13 5.86637e-13 54.4238 37.9127 -5.65023 -24.5303 -20.122 51.3184 -0.096136 -8.80886 -1.24795 -1.98745e-10 2.6734e-09 -4.18777e-09 -3.15405e-10 4.64377e-09 -7.2289e-09 -1.98744e-10 2.6734e-09 -4.18779e-09 7.73091 5.47488 0.417314 -1.98744e-10 2.6734e-09 -4.18777e-09 2.90554 0.965183 0.102902 -1.98743e-10 2.67339e-09 -4.18777e-09 10.2786 0.731801 0.0259123 -1.98752e-10 2.67339e-09 -4.18776e-09 2.22167 -0.733487 -0.20892 2.66164e-13 -6.91734e-13 5.86571e-13 -64.3329 7.16276 31.8545 15.7966 -8.49899 -29.246 0.0152133 3.44094 -0.484234 -3.69392e-09 9.22836e-09 1.93443e-09 -6.38353e-09 1.5998e-08 3.37219e-09 -3.69392e-09 9.22836e-09 1.93444e-09 -7.73091 5.47488 -0.417314 -3.69391e-09 9.22835e-09 1.93443e-09 -2.90554 0.965183 -0.102902 -3.69392e-09 9.22836e-09 1.93443e-09 -10.2786 0.731801 -0.0259123 -3.69391e-09 9.22835e-09 1.93442e-09 -2.22167 -0.733487 0.20892 -2.03217e-16 0.0 -3.88251e-19 18.26 -6.02791 12.0771 0.285633 20.0609 2.37247 -8.03957 -23.4425 -20.6557 2.03217e-16 0.0 3.88251e-19 31.5279 -48.3053 -1.75382 -0.0781887 18.0097 -2.94948 8.33728 -35.7306 7.17374
-9.11004 85.6676 9.61688 -141.726 -55.128 177.747 10.8138 -0.846118 17.0892 -1.57285 -20.9885 4.36217 3.8795 -5.94241 -0.458765 5.5191 10.3292 -3.8734 -0.0 0.0 0.0 -0.0 0.0 0.0 4.32606e-13 -2.17709e-12 3.92799e-13 54.3452 38.0992 -6.46953 -24.1739 -19.4255 50.1641 -0.101301 -9.0405 -1.28132 -2.00543e-09 -6.97512e-10 -1.39267e-09 -3.45843e-09 -1.19204e-09 -2.41021e-09 -2.00543e-09 -6.97515e-10 -1.39268e-09 7.73091 5.47488 0.417314 -2.00543e-09 -6.97519e-10 -1.39267e-09 2.90554 0.965183 0.102902 -2.00543e-09 -6.97521e-10 -1.39267e-09 10.2786 0.731801 0.0259123 -2.00544e-09 -6.97521e-10 -1.39266e-09 2.22167 -0.733487 -0.20892 4.32533e-13 -2.17709e-12 3.92749e-13 -65.5114 7.35467 31.6252 15.8001 -8.50289 -29.2519 0.0161854 3.62968 -0.510809 -3.89885e-09 8.39867e-09 2.56871e-09 -6.73151e-09 1.45607e-08 4.47034e-09 -3.89886e-09 8.39868e-09 2.56873e-09 -7.73091 5.47488 -0.417314 -3.89884e-09 8.39867e-09 2.56871e-09 -2.90554 0.965183 -0.102902 -3.89886e-09 8.39867e-09 2.56872e-09 -10.2786 0.731801 -0.0259123 -3.89885e-09 8.39866e-09 2.5687e-09 -2.22167 -0.733487 0.20892 -2.03217e-16 0.0 -3.88251e-19 15.6097 -6.58152 7.97859 0.239526 22.4055 2.46968 -6.00391 -15.5166 -20.2738 2.03217e-16 0.0 3.88251e-19 29.2408 -47.0932 -4.66432 -0.0946046 16.8884 -2.99003 9.72733 -36.1395 8.99195
-11.2371 85.985 9.77927 -141.113 -55.9064 176.853 10.3444 -0.549451 16.349 -1.41482 -20.7114 4.23653 3.68396 -5.78915 -0.583141 5.44328 10.135 -4.00482 -0.0 0.0 0.0 -0.0 0.0 0.0 4.00412e-13 -2.6375e-12 9.23588e-14 54.8542 37.8759 -8.00345 -23.8115 -18.7545 48.9913 -0.105864 -9.21899 -1.30715 -2.02912e-09 -1.96898e-09 1.30754e-10 -3.51112e-09 -3.39741e-09 2.1811e-10 -2.02912e-09 -1.96898e-09 1.30738e-10 7.73091 5.47488 0.417314 -2.02912e-09 -1.96898e-09 1.30754e-10 2.90554 0.965183 0.102902 -2.02912e-09 -1.96899e-09 1.3075e-10 10.2786 0.731801 0.0259123 -2.02913e-09 -1.96898e-09 1.30757e-10 2.22167 -0.733487 -0.20892 4.00335e-13 -2.6375e-12 9.22769e-14 -66.3415 7.50049 31.3259 15.7474 -8.45482 -29.141 0.0197236 4.12239 -0.58028 -2.87544e-09 4.65498e-09 1.64175e-09 -4.96415e-09 8.0739e-09 2.85818e-09 -2.87545e-09 4.65498e-09 1.64177e-09 -7.73091 5.47488 -0.417314 -2.87544e-09 4.65497e-09 1.64175e-09 -2.90554 0.965183 -0.102902 -2.87545e-09 4.65497e-09 1.64175e-09 -10.2786 0.731801 -0.0259123 -2.87544e-09 4.65497e-09 1.64174e-09 -2.22167 -0.733487 0.20892 -2.03217e-16 0.0 -3.88251e-19 12.5037 -6.49331 4.26119 0.176222 25.6269 2.34171 -4.99144 -9.51206 -20.9921 2.03217e-16 0.0 3.88251e-19 25.7847 -45.3805 -8.69643 -0.111644 15.8088 -2.94522 8.6921 -37.1724 6.60577
-13.3997 86.163 9.97987 -140.886 -56.9623 176.059 9.63865 -0.0822656 15.3955 -1.44483 -20.4008 4.03294 3.47815 -5.54918 -0.711692 5.42195 10.0766 -4.16798 -0.0 0.0 0.0 -0.0 0.0 0.0 2.50955e-13 -2.59838e-12 -3.23081e-13 55.7121 37.4401 -9.98887 -23.4026 -18.0283 47.7305 -0.110092 -9.36755 -1.32875 -1.03475e-09 -2.25266e-09 1.23e-09 -1.80142e-09 -3.89612e-09 2.11708e-09 -1.03474e-09 -2.25266e-09 1.22998e-09 7.73091 5.47488 0.417314 -1.03475e-09 -2.25266e-09 1.23e-09 2.90554 0.965183 0.102902 -1.03475e-09 -2.25266e-09 1.22999e-09 10.2786 0.731801 0.0259123 -1.03475e-09 -2.25266e-09 1.23e-09 2.22167 -0.733487 -0.20892 2.50856e-13 -2.59838e-12 -3.23227e-13 -66.9758 7.56271 31.0284 15.6429 -8.3596 -28.9225 0.0273482 4.86415 -0.685122 -1.04064e-09 -1.40419e-09 -3.61236e-10 -1.79916e-09 -2.42449e-09 -6.21879e-10 -1.04065e-09 -1.40419e-09 -3.61219e-10 -7.73091 5.47488 -0.417314 -1.04064e-09 -1.4042e-09 -3.61241e-10 -2.90554 0.965183 -0.102902 -1.04064e-09 -1.4042e-09 -3.61239e-10 -10.2786 0.731801 -0.0259123 -1.04064e-09 -1.4042e-09 -3.6125e-10 -2.22167 -0.733487 0.20892 -2.03217e-16 0.0 -3.88251e-19 9.02699 -5.8877 0.56354 0.13554 29.5549 2.06344 -4.20377 -4.04425 -22.3186 2.03217e-16 0.0 3.88251e-19 21.7881 -43.0904 -13.2897 -0.124564 14.7231 -2.84159 5.83915 -38.425 1.33671
-15.505 86.2527 10.2731 -141.184 -58.3035 175.638 8.7733 0.43499 14.3523 -1.52732 -20.0745 3.785 3.29681 -5.28379 -0.824672 5.37463 10.1576 -4.32614 -0.0 0.0 0.0 -0.0 0.0 0.0 6.82774e-14 -2.23605e-12 -6.99009e-13 56.7176 36.8786 -12.1721 -22.9681 -17.2883 46.4641 -0.115861 -9.60716 -1.36339 2.37257e-10 -2.0485e-09 1.94524e-09 3.90961e-10 -3.55086e-09 3.35443e-09 2.37268e-10 -2.04849e-09 1.94523e-09 7.73091 5.47488 0.417314 2.37256e-10 -2.0485e-09 1.94524e-09 2.90554 0.965183 0.102902 2.37261e-10 -2.04849e-09 1.94524e-09 10.2786 0.731801 0.0259123 2.37254e-10 -2.04849e-09 1.94524e-09 2.22167 -0.733487 -0.20892 6.81587e-14 -2.23605e-12 -6.99221e-13 -67.4423 7.54738 30.7758 15.5523 -8.2774 -28.7342 0.0371408 5.56648 -0.784722 8.53756e-10 -7.24931e-09 -2.38902e-09 1.46815e-09 -1.25524e-08 -4.14494e-09 8.53737e-10 -7.2493e-09 -2.389e-09 -7.73091 5.47488 -0.417314 8.53755e-10 -7.24932e-09 -2.38902e-09 -2.90554 0.965183 -0.102902 8.53753e-10 -7.24932e-09 -2.38902e-09 -10.2786 0.731801 -0.0259123 8.5376e-10 -7.24932e-09 -2.38903e-09 -2.22167 -0.733487 0.20892 -2.03217e-16 0.0 -3.88251e-19 5.64675 -5.28505 -2.75459 0.0851722 34.1494 1.74352 -3.29519 0.808592 -23.4137 2.03217e-16 0.0 3.88251e-19 17.9001 -40.63 -17.6099 -0.128049 13.7745 -2.66467 2.49722 -39.3114 -4.33967
